<?xml version="1.0" encoding="utf-8"?>
<!-- Generator: Adobe Illustrator 16.0.0, SVG Export Plug-In . SVG Version: 6.00 Build 0)  -->
<!DOCTYPE svg PUBLIC "-//W3C//DTD SVG 1.1//EN" "http://www.w3.org/Graphics/SVG/1.1/DTD/svg11.dtd">
<svg version="1.1" id="Layer_1" xmlns="http://www.w3.org/2000/svg" xmlns:xlink="http://www.w3.org/1999/xlink" x="0px" y="0px"
	 width="329px" height="59px" viewBox="0 0 329 59" enable-background="new 0 0 329 59" xml:space="preserve">
<path fill="#0A77BD" d="M1,29.533v-0.124c0-11.097,7.253-17.173,15.126-17.173c4.854,0,7.912,2.143,10.127,4.693
	c0.079,0.092,0.227,0.037,0.227-0.084V0.959c0-0.072,0.059-0.131,0.132-0.131h9.16c0.072,0,0.131,0.059,0.131,0.131v44.995
	c0,0.072-0.059,0.131-0.131,0.131h-9.16c-0.073,0-0.132-0.059-0.132-0.131v-4.258c0-0.126-0.155-0.177-0.232-0.078
	c-2.274,2.944-5.387,5.087-10.122,5.087C8.377,46.706,1,40.63,1,29.533 M26.604,29.533v-0.124c0-5.518-3.658-9.175-8.06-9.175
	c-4.401,0-8.121,3.595-8.121,9.175v0.124c0,5.519,3.72,9.176,8.121,9.176C22.946,38.708,26.604,35.051,26.604,29.533"/>
<path fill="#0A77BD" d="M38.632,36.539v-0.124c0-7.254,5.518-10.602,13.391-10.602c3.348,0,5.766,0.558,8.122,1.365v-0.559
	c0-3.905-2.418-6.075-7.129-6.075c-3.546,0-6.066,0.663-9.047,1.75c-0.07,0.026-0.148-0.01-0.171-0.081l-2.277-6.948
	c-0.021-0.065,0.011-0.136,0.074-0.164c3.62-1.584,7.2-2.617,12.784-2.617c5.146,0,8.866,1.364,11.222,3.72
	c2.48,2.48,3.595,6.138,3.595,10.602v19.149c0,0.072-0.059,0.131-0.131,0.131h-8.85c-0.073,0-0.132-0.059-0.132-0.131v-3.137
	c0-0.119-0.141-0.173-0.222-0.087c-2.275,2.406-5.38,3.975-9.821,3.975C43.778,46.706,38.632,43.111,38.632,36.539 M60.269,34.369
	v-1.587c0-0.053-0.029-0.1-0.077-0.122c-1.602-0.726-3.679-1.205-5.937-1.205c-4.029,0-6.509,1.612-6.509,4.588v0.124
	c0,2.542,2.107,4.03,5.146,4.03C57.293,40.197,60.269,37.779,60.269,34.369"/>
<path fill="#0A77BD" d="M74.84,36.663V21.046c0-0.072-0.059-0.131-0.132-0.131h-3.704c-0.073,0-0.132-0.059-0.132-0.132v-7.796
	c0-0.073,0.059-0.132,0.132-0.132h3.704c0.073,0,0.132-0.059,0.132-0.131V4.494c0-0.072,0.059-0.131,0.132-0.131h9.16
	c0.072,0,0.131,0.059,0.131,0.131v8.231c0,0.072,0.059,0.131,0.132,0.131h7.548c0.073,0,0.132,0.059,0.132,0.132v7.796
	c0,0.073-0.059,0.132-0.132,0.132h-7.548c-0.073,0-0.132,0.059-0.132,0.131v14.066c0,2.17,0.931,3.224,3.038,3.224
	c1.657,0,3.145-0.396,4.463-1.079c0.087-0.045,0.187,0.015,0.187,0.113v7.274c0,0.047-0.025,0.092-0.066,0.117
	c-1.969,1.154-4.247,1.881-7.374,1.881C78.746,46.643,74.84,44.35,74.84,36.663"/>
<path fill="#0A77BD" d="M93.315,36.539v-0.124c0-7.254,5.518-10.602,13.391-10.602c3.348,0,5.766,0.558,8.122,1.365v-0.559
	c0-3.905-2.418-6.075-7.129-6.075c-3.546,0-6.066,0.663-9.047,1.75c-0.07,0.026-0.148-0.01-0.171-0.081l-2.277-6.948
	c-0.021-0.065,0.011-0.136,0.074-0.164c3.62-1.584,7.2-2.617,12.784-2.617c5.146,0,8.866,1.364,11.222,3.72
	c2.48,2.48,3.595,6.138,3.595,10.602v19.149c0,0.072-0.059,0.131-0.131,0.131h-8.85c-0.073,0-0.132-0.059-0.132-0.131v-3.137
	c0-0.119-0.141-0.173-0.222-0.087c-2.275,2.406-5.38,3.975-9.821,3.975C98.461,46.706,93.315,43.111,93.315,36.539 M114.952,34.369
	v-1.587c0-0.053-0.029-0.1-0.077-0.122c-1.602-0.726-3.679-1.205-5.937-1.205c-4.029,0-6.509,1.612-6.509,4.588v0.124
	c0,2.542,2.107,4.03,5.146,4.03C111.976,40.197,114.952,37.779,114.952,34.369"/>
<path fill="#52AADB" d="M126.802,36.167h9.78c0.073,0,0.132,0.059,0.132,0.131v9.657c0,0.071-0.059,0.131-0.132,0.131h-9.78
	c-0.073,0-0.132-0.06-0.132-0.131v-9.657C126.67,36.225,126.729,36.167,126.802,36.167"/>
<path fill="#0A77BD" d="M138.203,29.657v-0.124c0-9.547,7.687-17.297,18.041-17.297c10.291,0,17.917,7.626,17.917,17.173v0.124
	c0,9.548-7.688,17.297-18.041,17.297C145.828,46.83,138.203,39.204,138.203,29.657 M164.861,29.657v-0.124
	c0-4.897-3.534-9.175-8.741-9.175c-5.394,0-8.618,4.153-8.618,9.051v0.124c0,4.897,3.534,9.176,8.742,9.176
	C161.637,38.708,164.861,34.555,164.861,29.657"/>
<path fill="#0A77BD" d="M176.153,0.829h9.16c0.073,0,0.132,0.059,0.132,0.131v23.646c0,0.121,0.148,0.178,0.229,0.089l10.768-11.796
	c0.025-0.027,0.061-0.043,0.098-0.043h10.914c0.117,0,0.176,0.14,0.096,0.223l-12.359,12.783c-0.043,0.044-0.049,0.112-0.016,0.163
	l12.893,19.858c0.057,0.089-0.006,0.203-0.111,0.203h-10.473c-0.045,0-0.087-0.022-0.111-0.06l-8.55-13.375
	c-0.046-0.072-0.147-0.082-0.206-0.021l-3.134,3.312c-0.022,0.024-0.036,0.058-0.036,0.091v9.922c0,0.072-0.059,0.131-0.132,0.131
	h-9.16c-0.073,0-0.132-0.059-0.132-0.131V0.959C176.021,0.888,176.08,0.829,176.153,0.829"/>
<path fill="#52AADB" d="M210.005,36.167h9.78c0.072,0,0.132,0.059,0.132,0.131v9.657c0,0.071-0.06,0.131-0.132,0.131h-9.78
	c-0.073,0-0.132-0.06-0.132-0.131v-9.657C209.873,36.225,209.932,36.167,210.005,36.167"/>
<path fill="#0A77BD" d="M222.637,52.542l3.112-6.824c0.031-0.068,0.115-0.096,0.183-0.059c3.367,1.88,6.748,2.969,11.098,2.969
	c6.447,0,9.484-3.1,9.484-9.052v-1.612c-2.789,3.349-5.828,5.395-10.85,5.395c-7.749,0-14.754-5.643-14.754-15.499v-0.124
	c0-9.919,7.129-15.499,14.754-15.499c4.996,0,8.004,2.045,10.501,4.717c0.082,0.087,0.226,0.031,0.226-0.088v-3.877
	c0-0.073,0.059-0.132,0.131-0.132h9.16c0.072,0,0.131,0.059,0.131,0.132v25.597c0,5.951-1.424,10.291-4.215,13.081
	c-3.1,3.101-7.873,4.464-14.321,4.464c-5.347,0-10.388-1.219-14.581-3.412C222.633,52.684,222.607,52.607,222.637,52.542
	 M246.514,27.859v-0.124c0-4.525-3.533-7.688-8.121-7.688s-8.06,3.163-8.06,7.688c0,3.773,2.69,7.089,6.417,7.68
	C242.107,36.264,246.514,32.912,246.514,27.859"/>
<path fill="#0A77BD" d="M258.915,29.657v-0.124c0-9.547,7.687-17.297,18.041-17.297c10.291,0,17.917,7.626,17.917,17.173v0.124
	c0,9.548-7.688,17.297-18.041,17.297C266.54,46.83,258.915,39.204,258.915,29.657 M285.573,29.657v-0.124
	c0-4.897-3.534-9.175-8.741-9.175c-5.394,0-8.617,4.153-8.617,9.051v0.124c0,4.897,3.533,9.176,8.741,9.176
	C282.35,38.708,285.573,34.555,285.573,29.657"/>
<path fill="#0A77BD" d="M292.09,12.856h9.694c0.058,0,0.106,0.036,0.125,0.09l7.285,21.795c0.041,0.12,0.21,0.12,0.25,0
	l7.346-21.796c0.019-0.053,0.067-0.089,0.125-0.089h9.509c0.092,0,0.155,0.093,0.122,0.179L313.567,46.25
	c-0.021,0.051-0.069,0.084-0.123,0.084h-8.375c-0.054,0-0.103-0.033-0.123-0.084l-12.979-33.216
	C291.934,12.949,291.997,12.856,292.09,12.856"/>
</svg>
